<svg width="500" height="500" viewBox="0 0 500 500" fill="none" xmlns="http://www.w3.org/2000/svg">
<rect width="500" height="500" fill="#1E1E1E"/>
<path d="M0 2C0 0.895435 0.895431 0 2 0H498C499.105 0 500 0.895431 500 2V498C500 499.105 499.105 500 498 500H2C0.895435 500 0 499.105 0 498V2Z" fill="white"/>
<path d="M2 0V1H498V0V-1H2V0ZM500 2H499V498H500H501V2H500ZM498 500V499H2V500V501H498V500ZM0 498H1V2H0H-1V498H0ZM2 500V499C1.44772 499 1 498.552 1 498H0H-1C-1 499.657 0.343152 501 2 501V500ZM500 498H499C499 498.552 498.552 499 498 499V500V501C499.657 501 501 499.657 501 498H500ZM498 0V1C498.552 1 499 1.44772 499 2H500H501C501 0.343143 499.657 -1 498 -1V0ZM2 0V-1C0.343143 -1 -1 0.343152 -1 2H0H1C1 1.44772 1.44772 1 2 1V0Z" fill="white" fill-opacity="0.1"/>
<path d="M260.858 249.09C261.171 249.09 261.421 249.152 261.608 249.277C261.804 249.395 261.948 249.586 262.042 249.852L266.179 261.406H266.894C267.159 261.406 267.347 261.469 267.456 261.594C267.573 261.711 267.632 261.914 267.632 262.203C267.632 262.492 267.573 262.699 267.456 262.824C267.347 262.941 267.159 263 266.894 263H262.745C262.479 263 262.288 262.941 262.171 262.824C262.062 262.699 262.007 262.492 262.007 262.203C262.007 261.914 262.062 261.711 262.171 261.594C262.288 261.469 262.479 261.406 262.745 261.406H264.327L263.366 258.617H257.683L256.71 261.406H258.128C258.394 261.406 258.581 261.469 258.69 261.594C258.808 261.711 258.866 261.914 258.866 262.203C258.866 262.492 258.808 262.699 258.69 262.824C258.581 262.941 258.394 263 258.128 263H254.214C253.948 263 253.757 262.941 253.64 262.824C253.53 262.699 253.476 262.492 253.476 262.203C253.476 261.914 253.53 261.711 253.64 261.594C253.757 261.469 253.948 261.406 254.214 261.406H254.87L258.749 250.684H256.558C256.292 250.684 256.101 250.625 255.983 250.508C255.874 250.383 255.819 250.176 255.819 249.887C255.819 249.598 255.874 249.395 255.983 249.277C256.101 249.152 256.292 249.09 256.558 249.09H260.858ZM260.425 250.684L258.233 257.023H262.827L260.647 250.684H260.425ZM275.835 249.09C276.874 249.09 277.765 249.273 278.507 249.641C279.249 250.008 279.812 250.527 280.194 251.199C280.585 251.871 280.78 252.648 280.78 253.531C280.78 254.414 280.585 255.188 280.194 255.852C279.812 256.508 279.249 257.02 278.507 257.387C277.765 257.746 276.874 257.926 275.835 257.926H273.081V261.406H275.894C276.159 261.406 276.347 261.469 276.456 261.594C276.573 261.711 276.632 261.914 276.632 262.203C276.632 262.492 276.573 262.699 276.456 262.824C276.347 262.941 276.159 263 275.894 263H269.425C269.159 263 268.968 262.941 268.851 262.824C268.741 262.699 268.687 262.492 268.687 262.203C268.687 261.914 268.741 261.711 268.851 261.594C268.968 261.469 269.159 261.406 269.425 261.406H271.323V250.684H269.425C269.159 250.684 268.968 250.625 268.851 250.508C268.741 250.383 268.687 250.176 268.687 249.887C268.687 249.598 268.741 249.395 268.851 249.277C268.968 249.152 269.159 249.09 269.425 249.09H275.835ZM273.081 256.332H275.589C276.675 256.332 277.503 256.086 278.073 255.594C278.644 255.102 278.929 254.414 278.929 253.531C278.929 252.633 278.64 251.934 278.062 251.434C277.491 250.934 276.667 250.684 275.589 250.684H273.081V256.332ZM290.226 249.09C291.265 249.09 292.155 249.273 292.897 249.641C293.64 250.008 294.202 250.527 294.585 251.199C294.976 251.871 295.171 252.648 295.171 253.531C295.171 254.414 294.976 255.188 294.585 255.852C294.202 256.508 293.64 257.02 292.897 257.387C292.155 257.746 291.265 257.926 290.226 257.926H287.472V261.406H290.284C290.55 261.406 290.737 261.469 290.847 261.594C290.964 261.711 291.022 261.914 291.022 262.203C291.022 262.492 290.964 262.699 290.847 262.824C290.737 262.941 290.55 263 290.284 263H283.815C283.55 263 283.358 262.941 283.241 262.824C283.132 262.699 283.077 262.492 283.077 262.203C283.077 261.914 283.132 261.711 283.241 261.594C283.358 261.469 283.55 261.406 283.815 261.406H285.714V250.684H283.815C283.55 250.684 283.358 250.625 283.241 250.508C283.132 250.383 283.077 250.176 283.077 249.887C283.077 249.598 283.132 249.395 283.241 249.277C283.358 249.152 283.55 249.09 283.815 249.09H290.226ZM287.472 256.332H289.979C291.065 256.332 291.894 256.086 292.464 255.594C293.034 255.102 293.319 254.414 293.319 253.531C293.319 252.633 293.03 251.934 292.452 251.434C291.882 250.934 291.058 250.684 289.979 250.684H287.472V256.332ZM307.581 248.832C307.901 248.832 308.128 248.891 308.261 249.008C308.394 249.125 308.46 249.32 308.46 249.594V252.289C308.46 252.562 308.394 252.758 308.261 252.875C308.128 252.992 307.901 253.051 307.581 253.051C307.284 253.051 307.081 252.949 306.972 252.746C306.597 252.035 306.069 251.496 305.39 251.129C304.71 250.754 303.937 250.566 303.069 250.566C302.21 250.566 301.542 250.766 301.065 251.164C300.597 251.562 300.362 252.098 300.362 252.77C300.362 253.09 300.444 253.359 300.608 253.578C300.772 253.797 301.007 253.984 301.312 254.141C301.585 254.281 301.905 254.398 302.272 254.492C302.64 254.578 303.132 254.68 303.749 254.797C304.421 254.93 304.952 255.043 305.343 255.137C305.741 255.223 306.132 255.344 306.515 255.5C307.296 255.82 307.905 256.27 308.343 256.848C308.788 257.418 309.011 258.191 309.011 259.168C309.011 259.98 308.819 260.695 308.437 261.312C308.054 261.922 307.487 262.398 306.737 262.742C305.995 263.086 305.101 263.258 304.054 263.258C303.272 263.258 302.546 263.117 301.874 262.836C301.21 262.547 300.632 262.129 300.14 261.582V262.496C300.14 262.77 300.073 262.965 299.94 263.082C299.808 263.199 299.581 263.258 299.261 263.258C298.94 263.258 298.714 263.199 298.581 263.082C298.448 262.965 298.382 262.77 298.382 262.496V258.98C298.382 258.707 298.448 258.512 298.581 258.395C298.714 258.277 298.94 258.219 299.261 258.219C299.597 258.219 299.823 258.383 299.94 258.711C300.261 259.617 300.769 260.312 301.464 260.797C302.167 261.281 303.03 261.523 304.054 261.523C305.054 261.523 305.819 261.309 306.351 260.879C306.89 260.449 307.159 259.879 307.159 259.168C307.159 258.676 307.034 258.277 306.784 257.973C306.542 257.66 306.187 257.402 305.718 257.199C305.421 257.066 305.097 256.961 304.745 256.883C304.394 256.797 303.913 256.691 303.304 256.566C302.663 256.441 302.124 256.324 301.687 256.215C301.257 256.105 300.858 255.969 300.491 255.805C299.866 255.523 299.378 255.145 299.026 254.668C298.683 254.184 298.511 253.551 298.511 252.77C298.511 251.965 298.702 251.266 299.085 250.672C299.476 250.078 300.015 249.625 300.702 249.312C301.397 248.992 302.187 248.832 303.069 248.832C303.757 248.832 304.421 248.965 305.062 249.23C305.702 249.496 306.249 249.855 306.702 250.309V249.594C306.702 249.32 306.769 249.125 306.901 249.008C307.034 248.891 307.261 248.832 307.581 248.832Z" fill="#00FF7F"/>
<path d="M318.116 259.484C318.679 259.484 319.081 259.543 319.323 259.66C319.573 259.77 319.698 259.957 319.698 260.223V262.379C319.698 262.645 319.573 262.836 319.323 262.953C319.081 263.062 318.679 263.117 318.116 263.117C317.554 263.117 317.147 263.062 316.897 262.953C316.655 262.836 316.534 262.645 316.534 262.379V260.223C316.534 259.957 316.655 259.77 316.897 259.66C317.147 259.543 317.554 259.484 318.116 259.484Z" fill="#FF6B6B"/>
<path d="M180.904 263H168V228.091H180.887C184.444 228.091 187.506 228.79 190.074 230.188C192.654 231.574 194.642 233.574 196.04 236.188C197.438 238.79 198.137 241.903 198.137 245.528C198.137 249.165 197.438 252.29 196.04 254.903C194.654 257.517 192.671 259.523 190.091 260.92C187.512 262.307 184.449 263 180.904 263ZM176.438 255.807H180.58C182.535 255.807 184.188 255.477 185.54 254.818C186.904 254.148 187.932 253.062 188.625 251.562C189.33 250.051 189.682 248.04 189.682 245.528C189.682 243.017 189.33 241.017 188.625 239.528C187.921 238.028 186.881 236.949 185.506 236.29C184.142 235.619 182.461 235.284 180.461 235.284H176.438V255.807Z" fill="#1A1A1A"/>
<rect x="201.358" y="229" width="36" height="8" fill="#1A1A1A"/>
<rect x="201.358" y="242" width="32" height="8" fill="#1A1A1A"/>
<rect x="201.358" y="255" width="32" height="8" fill="#1A1A1A"/>
<path d="M251.394 255.445L247.432 262.961L247.358 263L231.158 232.312L237.433 229L251.394 255.445Z" fill="#1A1A1A"/>
<path d="M266.78 226.354L247.433 263L247.361 262.962L243.397 255.444L260.505 223.04L266.78 226.354Z" fill="black"/>
<path d="M322 231H259.358V225.227L260.436 223H322V231Z" fill="black"/>
<path d="M190.83 273.08C190.457 273.08 190.13 273.023 189.85 272.91C189.577 272.79 189.357 272.623 189.19 272.41C189.03 272.197 188.933 271.943 188.9 271.65H189.8C189.84 271.843 189.947 271.997 190.12 272.11C190.3 272.223 190.537 272.28 190.83 272.28H191.25C191.603 272.28 191.867 272.21 192.04 272.07C192.213 271.923 192.3 271.73 192.3 271.49C192.3 271.257 192.22 271.073 192.06 270.94C191.907 270.8 191.677 270.707 191.37 270.66L190.63 270.54C190.09 270.447 189.687 270.28 189.42 270.04C189.16 269.793 189.03 269.437 189.03 268.97C189.03 268.477 189.187 268.097 189.5 267.83C189.813 267.557 190.283 267.42 190.91 267.42H191.29C191.817 267.42 192.24 267.543 192.56 267.79C192.88 268.037 193.073 268.37 193.14 268.79H192.24C192.2 268.617 192.1 268.48 191.94 268.38C191.78 268.273 191.563 268.22 191.29 268.22H190.91C190.57 268.22 190.32 268.283 190.16 268.41C190.007 268.537 189.93 268.727 189.93 268.98C189.93 269.207 189.997 269.373 190.13 269.48C190.263 269.587 190.473 269.663 190.76 269.71L191.5 269.83C192.093 269.923 192.523 270.097 192.79 270.35C193.063 270.603 193.2 270.97 193.2 271.45C193.2 271.957 193.037 272.357 192.71 272.65C192.39 272.937 191.903 273.08 191.25 273.08H190.83ZM196.996 273.08C196.556 273.08 196.176 272.997 195.856 272.83C195.536 272.663 195.286 272.423 195.106 272.11C194.933 271.79 194.846 271.413 194.846 270.98V269.52C194.846 269.08 194.933 268.703 195.106 268.39C195.286 268.077 195.536 267.837 195.856 267.67C196.176 267.503 196.556 267.42 196.996 267.42C197.436 267.42 197.816 267.503 198.136 267.67C198.456 267.837 198.703 268.077 198.876 268.39C199.056 268.703 199.146 269.077 199.146 269.51V270.98C199.146 271.413 199.056 271.79 198.876 272.11C198.703 272.423 198.456 272.663 198.136 272.83C197.816 272.997 197.436 273.08 196.996 273.08ZM196.996 272.28C197.389 272.28 197.696 272.17 197.916 271.95C198.136 271.73 198.246 271.407 198.246 270.98V269.52C198.246 269.093 198.136 268.77 197.916 268.55C197.696 268.33 197.389 268.22 196.996 268.22C196.609 268.22 196.303 268.33 196.076 268.55C195.856 268.77 195.746 269.093 195.746 269.52V270.98C195.746 271.407 195.856 271.73 196.076 271.95C196.303 272.17 196.609 272.28 196.996 272.28ZM203.742 273C203.422 273 203.142 272.937 202.902 272.81C202.662 272.683 202.476 272.503 202.342 272.27C202.209 272.037 202.142 271.763 202.142 271.45V266.52H200.292V265.7H203.042V271.45C203.042 271.677 203.106 271.857 203.232 271.99C203.359 272.117 203.529 272.18 203.742 272.18H205.492V273H203.742ZM208.378 273L206.538 267.5H207.458L208.678 271.2C208.752 271.42 208.818 271.633 208.878 271.84C208.938 272.04 208.982 272.197 209.008 272.31C209.042 272.197 209.088 272.04 209.148 271.84C209.208 271.633 209.272 271.42 209.338 271.2L210.528 267.5H211.438L209.598 273H208.378ZM214.984 273.1C214.551 273.1 214.171 273.013 213.844 272.84C213.524 272.667 213.274 272.423 213.094 272.11C212.921 271.79 212.834 271.42 212.834 271V269.5C212.834 269.073 212.921 268.703 213.094 268.39C213.274 268.077 213.524 267.833 213.844 267.66C214.171 267.487 214.551 267.4 214.984 267.4C215.418 267.4 215.794 267.487 216.114 267.66C216.441 267.833 216.691 268.077 216.864 268.39C217.044 268.703 217.134 269.073 217.134 269.5V270.47H213.714V271C213.714 271.433 213.824 271.767 214.044 272C214.264 272.227 214.578 272.34 214.984 272.34C215.331 272.34 215.611 272.28 215.824 272.16C216.038 272.033 216.168 271.847 216.214 271.6H217.114C217.054 272.06 216.828 272.427 216.434 272.7C216.048 272.967 215.564 273.1 214.984 273.1ZM216.254 269.87V269.5C216.254 269.067 216.144 268.733 215.924 268.5C215.711 268.267 215.398 268.15 214.984 268.15C214.578 268.15 214.264 268.267 214.044 268.5C213.824 268.733 213.714 269.067 213.714 269.5V269.79H216.324L216.254 269.87ZM226.177 273V268.87H224.577V268.05H226.177V267.1C226.177 266.667 226.313 266.327 226.587 266.08C226.86 265.827 227.237 265.7 227.717 265.7H229.327V266.52H227.717C227.51 266.52 227.35 266.57 227.237 266.67C227.13 266.763 227.077 266.907 227.077 267.1V268.05H229.327V268.87H227.077V273H226.177ZM231.083 273V267.5H231.963V268.55H232.173L231.883 269.2C231.883 268.607 232.009 268.16 232.263 267.86C232.523 267.553 232.906 267.4 233.413 267.4C233.993 267.4 234.453 267.583 234.793 267.95C235.139 268.31 235.313 268.8 235.313 269.42V269.75H234.413V269.5C234.413 269.067 234.306 268.737 234.093 268.51C233.886 268.277 233.589 268.16 233.203 268.16C232.823 268.16 232.523 268.277 232.303 268.51C232.089 268.743 231.983 269.073 231.983 269.5V273H231.083ZM238.969 273.08C238.529 273.08 238.149 272.997 237.829 272.83C237.509 272.663 237.259 272.423 237.079 272.11C236.905 271.79 236.819 271.413 236.819 270.98V269.52C236.819 269.08 236.905 268.703 237.079 268.39C237.259 268.077 237.509 267.837 237.829 267.67C238.149 267.503 238.529 267.42 238.969 267.42C239.409 267.42 239.789 267.503 240.109 267.67C240.429 267.837 240.675 268.077 240.849 268.39C241.029 268.703 241.119 269.077 241.119 269.51V270.98C241.119 271.413 241.029 271.79 240.849 272.11C240.675 272.423 240.429 272.663 240.109 272.83C239.789 272.997 239.409 273.08 238.969 273.08ZM238.969 272.28C239.362 272.28 239.669 272.17 239.889 271.95C240.109 271.73 240.219 271.407 240.219 270.98V269.52C240.219 269.093 240.109 268.77 239.889 268.55C239.669 268.33 239.362 268.22 238.969 268.22C238.582 268.22 238.275 268.33 238.049 268.55C237.829 268.77 237.719 269.093 237.719 269.52V270.98C237.719 271.407 237.829 271.73 238.049 271.95C238.275 272.17 238.582 272.28 238.969 272.28ZM242.625 273V267.5H243.415V268.16H243.595L243.455 268.4C243.455 268.093 243.535 267.85 243.695 267.67C243.862 267.49 244.085 267.4 244.365 267.4C244.672 267.4 244.908 267.513 245.075 267.74C245.242 267.967 245.325 268.287 245.325 268.7L245.055 268.16H245.475L245.285 268.4C245.285 268.093 245.368 267.85 245.535 267.67C245.708 267.49 245.935 267.4 246.215 267.4C246.562 267.4 246.828 267.53 247.015 267.79C247.208 268.05 247.305 268.393 247.305 268.82V273H246.475V268.81C246.475 268.583 246.425 268.407 246.325 268.28C246.232 268.153 246.092 268.09 245.905 268.09C245.725 268.09 245.582 268.153 245.475 268.28C245.375 268.4 245.325 268.573 245.325 268.8V273H244.605V268.81C244.605 268.577 244.552 268.4 244.445 268.28C244.345 268.153 244.202 268.09 244.015 268.09C243.828 268.09 243.688 268.153 243.595 268.28C243.502 268.4 243.455 268.573 243.455 268.8V273H242.625ZM257.557 273C257.084 273 256.714 272.873 256.447 272.62C256.187 272.367 256.057 272.01 256.057 271.55V268.32H254.507V267.5H256.057V265.95H256.957V267.5H259.157V268.32H256.957V271.55C256.957 271.97 257.157 272.18 257.557 272.18H259.057V273H257.557ZM260.873 273V265.7H261.773V267.5V268.55H261.963L261.773 268.76C261.773 268.327 261.903 267.993 262.163 267.76C262.423 267.52 262.783 267.4 263.243 267.4C263.796 267.4 264.236 267.57 264.563 267.91C264.89 268.25 265.053 268.713 265.053 269.3V273H264.153V269.4C264.153 269.007 264.046 268.703 263.833 268.49C263.626 268.27 263.343 268.16 262.983 268.16C262.61 268.16 262.313 268.277 262.093 268.51C261.88 268.743 261.773 269.073 261.773 269.5V273H260.873ZM268.949 273.1C268.516 273.1 268.136 273.013 267.809 272.84C267.489 272.667 267.239 272.423 267.059 272.11C266.886 271.79 266.799 271.42 266.799 271V269.5C266.799 269.073 266.886 268.703 267.059 268.39C267.239 268.077 267.489 267.833 267.809 267.66C268.136 267.487 268.516 267.4 268.949 267.4C269.383 267.4 269.759 267.487 270.079 267.66C270.406 267.833 270.656 268.077 270.829 268.39C271.009 268.703 271.099 269.073 271.099 269.5V270.47H267.679V271C267.679 271.433 267.789 271.767 268.009 272C268.229 272.227 268.543 272.34 268.949 272.34C269.296 272.34 269.576 272.28 269.789 272.16C270.003 272.033 270.133 271.847 270.179 271.6H271.079C271.019 272.06 270.793 272.427 270.399 272.7C270.013 272.967 269.529 273.1 268.949 273.1ZM270.219 269.87V269.5C270.219 269.067 270.109 268.733 269.889 268.5C269.676 268.267 269.363 268.15 268.949 268.15C268.543 268.15 268.229 268.267 268.009 268.5C267.789 268.733 267.679 269.067 267.679 269.5V269.79H270.289L270.219 269.87ZM279.051 273V267.5H279.931V268.55H280.141L279.851 269.2C279.851 268.607 279.978 268.16 280.231 267.86C280.491 267.553 280.875 267.4 281.381 267.4C281.961 267.4 282.421 267.583 282.761 267.95C283.108 268.31 283.281 268.8 283.281 269.42V269.75H282.381V269.5C282.381 269.067 282.275 268.737 282.061 268.51C281.855 268.277 281.558 268.16 281.171 268.16C280.791 268.16 280.491 268.277 280.271 268.51C280.058 268.743 279.951 269.073 279.951 269.5V273H279.051ZM286.938 273.08C286.498 273.08 286.118 272.997 285.798 272.83C285.478 272.663 285.228 272.423 285.048 272.11C284.874 271.79 284.788 271.413 284.788 270.98V269.52C284.788 269.08 284.874 268.703 285.048 268.39C285.228 268.077 285.478 267.837 285.798 267.67C286.118 267.503 286.498 267.42 286.938 267.42C287.378 267.42 287.758 267.503 288.078 267.67C288.398 267.837 288.644 268.077 288.818 268.39C288.998 268.703 289.088 269.077 289.088 269.51V270.98C289.088 271.413 288.998 271.79 288.818 272.11C288.644 272.423 288.398 272.663 288.078 272.83C287.758 272.997 287.378 273.08 286.938 273.08ZM286.938 272.28C287.331 272.28 287.638 272.17 287.858 271.95C288.078 271.73 288.188 271.407 288.188 270.98V269.52C288.188 269.093 288.078 268.77 287.858 268.55C287.638 268.33 287.331 268.22 286.938 268.22C286.551 268.22 286.244 268.33 286.018 268.55C285.798 268.77 285.688 269.093 285.688 269.52V270.98C285.688 271.407 285.798 271.73 286.018 271.95C286.244 272.17 286.551 272.28 286.938 272.28ZM292.934 273.08C292.494 273.08 292.114 272.997 291.794 272.83C291.474 272.663 291.224 272.423 291.044 272.11C290.87 271.79 290.784 271.413 290.784 270.98V269.52C290.784 269.08 290.87 268.703 291.044 268.39C291.224 268.077 291.474 267.837 291.794 267.67C292.114 267.503 292.494 267.42 292.934 267.42C293.374 267.42 293.754 267.503 294.074 267.67C294.394 267.837 294.64 268.077 294.814 268.39C294.994 268.703 295.084 269.077 295.084 269.51V270.98C295.084 271.413 294.994 271.79 294.814 272.11C294.64 272.423 294.394 272.663 294.074 272.83C293.754 272.997 293.374 273.08 292.934 273.08ZM292.934 272.28C293.327 272.28 293.634 272.17 293.854 271.95C294.074 271.73 294.184 271.407 294.184 270.98V269.52C294.184 269.093 294.074 268.77 293.854 268.55C293.634 268.33 293.327 268.22 292.934 268.22C292.547 268.22 292.24 268.33 292.014 268.55C291.794 268.77 291.684 269.093 291.684 269.52V270.98C291.684 271.407 291.794 271.73 292.014 271.95C292.24 272.17 292.547 272.28 292.934 272.28ZM299.53 273C299.056 273 298.686 272.873 298.42 272.62C298.16 272.367 298.03 272.01 298.03 271.55V268.32H296.48V267.5H298.03V265.95H298.93V267.5H301.13V268.32H298.93V271.55C298.93 271.97 299.13 272.18 299.53 272.18H301.03V273H299.53ZM304.926 273.1C304.672 273.1 304.469 273.027 304.316 272.88C304.169 272.733 304.096 272.537 304.096 272.29C304.096 272.03 304.169 271.823 304.316 271.67C304.469 271.517 304.672 271.44 304.926 271.44C305.179 271.44 305.379 271.517 305.526 271.67C305.679 271.823 305.756 272.03 305.756 272.29C305.756 272.537 305.679 272.733 305.526 272.88C305.379 273.027 305.179 273.1 304.926 273.1Z" fill="black"/>
</svg>
